<?xml version="1.0" encoding="utf-8"?>
<!-- Generator: Adobe Illustrator 16.0.0, SVG Export Plug-In . SVG Version: 6.00 Build 0)  -->
<!DOCTYPE svg PUBLIC "-//W3C//DTD SVG 1.1//EN" "http://www.w3.org/Graphics/SVG/1.1/DTD/svg11.dtd">
<svg version="1.1" id="Layer_4" xmlns="http://www.w3.org/2000/svg" xmlns:xlink="http://www.w3.org/1999/xlink" x="0px" y="0px"
	 height="70px" viewBox="0 0 960 560" enable-background="new 0 0 960 560" xml:space="preserve">
<g>
	<g>
		<path fill="#060713" d="M169.707,223.185h-10.98l-6.1-42.395h-0.203l-6.202,42.395h-10.98l-10.979-71.167h11.081l6.202,47.173
			h0.203l6.1-47.173h9.557l6.1,47.173h0.203l6.202-47.173h10.776L169.707,223.185z"/>
		<path fill="#060713" d="M221.556,168.996v37.21c0,11.183-6.608,17.994-17.384,17.994c-10.777,0-17.386-6.812-17.386-17.994v-37.21
			c0-11.183,6.608-17.995,17.386-17.995C214.948,151.001,221.556,157.813,221.556,168.996z M197.563,169.098v37.007
			c0,5.287,2.338,8.133,6.608,8.133c4.27,0,6.608-2.847,6.608-8.133v-37.007c0-5.286-2.338-8.133-6.608-8.133
			C199.901,160.965,197.563,163.812,197.563,169.098z"/>
		<path fill="#060713" d="M256.326,223.185l-8.54-30.093h-4.982v30.093h-10.776v-71.167h15.555c11.589,0,17.893,6.303,17.893,17.995
			v5.083c0,7.524-2.643,12.81-7.625,15.657l9.862,32.432H256.326z M242.804,161.981v21.147h4.372c5.185,0,7.523-2.745,7.523-8.744
			v-3.66c0-5.999-2.338-8.743-7.523-8.743H242.804z"/>
		<path fill="#060713" d="M298.111,180.281l14.944,42.903h-11.488l-10.573-31.11l-4.677,9.15v21.96h-10.776v-71.167h10.776v29.687
			h0.204l14.945-29.687h11.284L298.111,180.281z"/>
		<path fill="#060713" d="M347.927,166.963v1.83l-10.371,1.017v-2.644c0-4.066-1.931-6.202-5.489-6.202s-5.49,2.135-5.49,6.202
			v0.915c0,4.168,1.831,7.726,9.048,13.826c9.862,8.337,13.521,14.234,13.521,22.773v3.558c0,10.167-5.998,15.961-16.673,15.961
			s-16.673-5.794-16.673-15.961v-4.778l10.37-1.017v5.083c0,4.474,2.034,6.71,6.1,6.71s6.1-2.236,6.1-6.71v-2.339
			c0-4.473-2.135-8.031-9.354-14.131c-9.861-8.336-13.216-14.233-13.216-22.57v-1.524c0-10.167,5.795-15.962,16.063-15.962
			C342.132,151.001,347.927,156.797,347.927,166.963z"/>
		<path fill="#060713" d="M390.015,223.185h-10.776v-31.009h-12.81v31.009h-10.776v-71.167h10.776v29.991h12.81v-29.991h10.776
			V223.185z"/>
		<path fill="#060713" d="M435.257,168.996v37.21c0,11.183-6.608,17.994-17.385,17.994c-10.777,0-17.385-6.812-17.385-17.994v-37.21
			c0-11.183,6.608-17.995,17.385-17.995C428.648,151.001,435.257,157.813,435.257,168.996z M411.264,169.098v37.007
			c0,5.287,2.338,8.133,6.608,8.133c4.27,0,6.608-2.847,6.608-8.133v-37.007c0-5.286-2.338-8.133-6.608-8.133
			C413.602,160.965,411.264,163.812,411.264,169.098z"/>
		<path fill="#060713" d="M479.176,170.013v5.693c0,11.692-6.303,17.995-17.893,17.995h-4.778v29.483h-10.776v-71.167h15.555
			C472.873,152.018,479.176,158.321,479.176,170.013z M456.505,161.981v21.756h4.371c5.186,0,7.524-2.745,7.524-8.743v-4.27
			c0-5.999-2.338-8.743-7.524-8.743H456.505z"/>
		<path fill="#060713" d="M514.658,223.185h-10.777v-71.167h10.777V223.185z"/>
		<path fill="#060713" d="M561.32,223.185h-10.574l-14.13-47.174h-0.204v47.174h-10.165v-71.167h11.995l12.709,42.395h0.202v-42.395
			h10.167V223.185z"/>
		<path fill="#060713" d="M625.676,223.185h-10.98l-2.337-16.165h-11.896l-2.339,16.165h-10.775l12.301-71.167h13.726
			L625.676,223.185z M606.259,167.268l-4.372,29.991h9.047l-4.371-29.991H606.259z"/>
		<path fill="#060713" d="M666.749,170.013v35.176c0,11.692-6.304,17.996-17.895,17.996H633.4v-71.167h15.454
			C660.445,152.018,666.749,158.321,666.749,170.013z M644.178,161.981v51.24h4.271c5.185,0,7.523-2.745,7.523-8.744v-33.753
			c0-5.999-2.339-8.743-7.523-8.743H644.178z"/>
		<path fill="#060713" d="M698.774,223.185h-13.928l-11.996-71.167h10.979l8.032,54.29h0.203l7.93-54.29h10.777L698.774,223.185z"/>
		<path fill="#060713" d="M750.523,223.185h-10.98l-2.337-16.165H725.31l-2.338,16.165h-10.776l12.302-71.167h13.726
			L750.523,223.185z M731.105,167.268l-4.371,29.991h9.047l-4.371-29.991H731.105z"/>
		<path fill="#060713" d="M793.324,223.185h-10.572l-14.132-47.174h-0.203v47.174H758.25v-71.167h11.996l12.709,42.395h0.204
			v-42.395h10.165V223.185z"/>
		<path fill="#060713" d="M837.145,168.082v6.405l-10.371,0.508v-5.795c0-5.692-2.135-8.234-6.1-8.234s-6.101,2.542-6.101,7.218
			v38.836c0,4.676,2.136,7.218,6.101,7.218s6.1-2.542,6.1-8.235v-7.93l10.371,0.508v8.54c0,10.776-6.203,17.08-16.775,17.08
			c-10.472,0-16.571-6.303-16.571-17.08v-39.04c0-10.777,6.1-17.08,16.571-17.08C830.941,151.001,837.145,157.305,837.145,168.082z"
			/>
		<path fill="#060713" d="M876.591,161.981H857.07v20.129h15.759v9.963H857.07v21.147h19.521v9.963h-30.298v-71.167h30.298V161.981z
			"/>
		<path fill="#060713" d="M919.086,170.013v35.176c0,11.692-6.303,17.996-17.894,17.996h-15.454v-71.167h15.454
			C912.783,152.018,919.086,158.321,919.086,170.013z M896.516,161.981v51.24h4.271c5.185,0,7.522-2.745,7.522-8.744v-33.753
			c0-5.999-2.338-8.743-7.522-8.743H896.516z"/>
	</g>
	<g>
		<path fill="#F6AF3A" d="M72.556,167.916v2.604c0,6.81-2.003,12.718-8.712,23.532l-11.816,18.926h20.528v10.014H39.911v-9.012
			l15.721-25.334c4.907-7.911,6.309-12.817,6.309-18.525v-1.402c0-4.606-2.002-7.01-5.908-7.01s-5.908,2.403-5.908,8.312v3.505
			l-10.214-0.501v-4.806c0-10.314,6.108-16.323,16.322-16.323S72.556,157.802,72.556,167.916z"/>
	</g>
	<g>
		<path fill="#060713" d="M93.221,280.516v2.205c0,13.223-3.899,21.023-13.394,24.242v0.342
			c11.19,3.391,15.938,12.205,15.938,27.805v4.068c0,19.498-10.512,30.012-29.84,30.012H39.475V250.506h25.092
			C83.218,250.506,93.221,261.018,93.221,280.516z M57.447,267.121v32.383h5.595c8.646,0,12.207-4.408,12.207-14.41v-3.9
			c0-9.664-3.561-14.072-11.359-14.072H57.447z M57.447,316.119v36.455h7.798c8.647,0,12.546-4.578,12.546-14.584v-6.611
			c0-10.51-3.899-15.26-13.394-15.26H57.447z"/>
		<path fill="#060713" d="M128.145,369.189h-17.972V250.506h17.972V369.189z"/>
		<path fill="#060713" d="M203.59,278.82v62.053c0,18.65-11.021,30.012-28.992,30.012c-17.972,0-28.993-11.361-28.993-30.012V278.82
			c0-18.65,11.021-30.009,28.993-30.009C192.569,248.811,203.59,260.169,203.59,278.82z M163.576,278.989v61.716
			c0,8.814,3.9,13.563,11.021,13.563c7.121,0,11.02-4.748,11.02-13.563v-61.716c0-8.816-3.899-13.563-11.02-13.563
			C167.477,265.426,163.576,270.173,163.576,278.989z"/>
		<path fill="#F6AF3A" d="M239.021,369.189H221.05V250.506h17.972V369.189z"/>
		<path fill="#F6AF3A" d="M316.839,369.189h-17.632l-23.567-78.67h-0.339v78.67h-16.954V250.506h20.006l21.193,70.699h0.339v-70.699
			h16.954V369.189z"/>
		<path fill="#F6AF3A" d="M385.843,267.121h-31.705v33.568h25.432v16.617h-25.432v51.883h-17.972V250.506h49.677V267.121z"/>
		<path fill="#F6AF3A" d="M453.321,278.82v62.053c0,18.65-11.02,30.012-28.992,30.012c-17.972,0-28.992-11.361-28.992-30.012V278.82
			c0-18.65,11.021-30.009,28.992-30.009C442.301,248.811,453.321,260.169,453.321,278.82z M413.309,278.989v61.716
			c0,8.814,3.899,13.563,11.021,13.563s11.021-4.748,11.021-13.563v-61.716c0-8.816-3.899-13.563-11.021-13.563
			S413.309,270.173,413.309,278.989z"/>
		<path fill="#F6AF3A" d="M511.303,369.189l-14.242-50.188h-8.306v50.188h-17.974V250.506h25.94
			c19.329,0,29.841,10.512,29.841,30.01v8.479c0,12.545-4.408,21.361-12.716,26.109l16.446,54.086H511.303z M488.755,267.121v35.266
			h7.29c8.646,0,12.546-4.578,12.546-14.58v-6.105c0-10.002-3.899-14.58-12.546-14.58H488.755z"/>
		<path fill="#F6AF3A" d="M619.471,369.189h-17.973v-82.4h-0.338l-14.92,65.443H575.56l-14.922-65.443h-0.339v82.4h-16.953V250.506
			h23.565l14.073,63.748h0.339l13.903-63.748h24.244V369.189z"/>
		<path fill="#F6AF3A" d="M696.271,369.189h-18.311l-3.9-26.959h-19.836l-3.9,26.959h-17.972l20.516-118.684h22.889L696.271,369.189
			z M663.889,275.938l-7.291,50.015h15.09l-7.291-50.015H663.889z"/>
		<path fill="#F6AF3A" d="M751.713,267.46h-19.158v101.729h-17.973V267.46h-19.158v-16.954h56.289V267.46z"/>
		<path fill="#F6AF3A" d="M781.21,369.189h-17.972V250.506h17.972V369.189z"/>
		<path fill="#F6AF3A" d="M854.281,277.294v10.681l-17.294,0.848v-9.664c0-9.494-3.56-13.733-10.172-13.733
			s-10.173,4.239-10.173,12.038v64.767c0,7.799,3.561,12.037,10.173,12.037s10.172-4.238,10.172-13.732v-13.225l17.294,0.848V342.4
			c0,17.971-10.342,28.484-27.975,28.484c-17.463,0-27.637-10.514-27.637-28.484v-65.106c0-17.971,10.174-28.483,27.637-28.483
			C843.939,248.811,854.281,259.323,854.281,277.294z"/>
		<path fill="#F6AF3A" d="M917.688,275.429v3.052l-17.293,1.696v-4.408c0-6.782-3.222-10.343-9.155-10.343
			c-5.935,0-9.155,3.561-9.155,10.343v1.525c0,6.952,3.051,12.886,15.089,23.06c16.446,13.9,22.549,23.734,22.549,37.979v5.932
			c0,16.957-10.003,26.621-27.805,26.621s-27.805-9.664-27.805-26.621v-7.969l17.293-1.695v8.479
			c0,7.459,3.391,11.189,10.173,11.189s10.172-3.73,10.172-11.189v-3.9c0-7.459-3.56-13.395-15.597-23.566
			c-16.447-13.902-22.041-23.736-22.041-37.639v-2.543c0-16.954,9.664-26.618,26.787-26.618
			C908.024,248.811,917.688,258.475,917.688,275.429z"/>
	</g>
	<g>
		<path fill="#F6AF3A" d="M76.142,190.982v-27.83h5.152v2.744c0.931-0.866,1.958-1.604,3.082-2.214
			c1.123-0.61,2.359-0.915,3.708-0.915c1.123,0,1.981,0.288,2.576,0.867c0.593,0.577,1.011,1.299,1.252,2.166
			c0.24,0.867,0.361,1.75,0.361,2.649v22.533H87.12v-21.041c0-0.995-0.145-1.765-0.434-2.311c-0.289-0.545-0.883-0.819-1.781-0.819
			c-0.578,0-1.18,0.168-1.805,0.506c-0.626,0.337-1.228,0.746-1.806,1.228v22.437H76.142z"/>
		<path fill="#F6AF3A" d="M103.73,191.368c-2.343,0-4.092-0.859-5.248-2.577c-1.156-1.717-1.733-4.629-1.733-8.738v-5.393
			c0-2.119,0.176-4.084,0.529-5.898c0.353-1.813,1.019-3.265,1.998-4.357c0.979-1.091,2.416-1.637,4.31-1.637
			c0.931,0,1.781,0.208,2.552,0.625c0.77,0.418,1.46,0.932,2.07,1.541v-12.952h5.151v39h-5.151v-1.781
			c-0.61,0.642-1.276,1.164-1.998,1.564C105.488,191.167,104.661,191.368,103.73,191.368z M105.03,187.323
			c0.482,0,0.995-0.088,1.54-0.265c0.546-0.176,1.091-0.441,1.638-0.794v-18.249c-0.45-0.32-0.947-0.602-1.493-0.842
			c-0.546-0.241-1.139-0.361-1.782-0.361c-1.188,0-1.991,0.571-2.407,1.71c-0.418,1.139-0.626,2.512-0.626,4.116v7.849
			c0,1.284,0.072,2.448,0.217,3.49c0.145,1.043,0.441,1.862,0.891,2.456C103.457,187.027,104.131,187.323,105.03,187.323z"/>
	</g>
	<g>
		<rect x="39" y="399" fill="#F6AF3A" width="882" height="10"/>
	</g>
</g>
</svg>
